<?xml version="1.0" encoding="UTF-8" standalone="no"?>
<!-- Created with Inkscape (http://www.inkscape.org/) -->

<svg
   width="78.799629mm"
   height="78.799637mm"
   viewBox="0 0 78.799629 78.799637"
   version="1.1"
   id="svg1"
   inkscape:export-filename="favicon.svg"
   inkscape:export-xdpi="96"
   inkscape:export-ydpi="96"
   xmlns:inkscape="http://www.inkscape.org/namespaces/inkscape"
   xmlns:sodipodi="http://sodipodi.sourceforge.net/DTD/sodipodi-0.dtd"
   xmlns="http://www.w3.org/2000/svg"
   xmlns:svg="http://www.w3.org/2000/svg">
  <sodipodi:namedview
     id="namedview1"
     pagecolor="#ffffff"
     bordercolor="#666666"
     borderopacity="1.0"
     inkscape:showpageshadow="2"
     inkscape:pageopacity="0.0"
     inkscape:pagecheckerboard="0"
     inkscape:deskcolor="#d1d1d1"
     inkscape:document-units="mm">
    <inkscape:page
       x="0"
       y="8.9644316e-22"
       width="78.799629"
       height="78.799637"
       id="page2"
       margin="0"
       bleed="0" />
  </sodipodi:namedview>
  <defs
     id="defs1" />
  <g
     inkscape:label="Plast 1"
     inkscape:groupmode="layer"
     id="layer1"
     transform="translate(-71.22182,-109.1002)">
    <circle
       style="fill:#50162d;stroke-width:2.80795;stroke-linecap:round;stroke-linejoin:round;stroke-dashoffset:1.8"
       id="circle2"
       cx="110.62163"
       cy="148.5"
       r="39.399815" />
    <path
       d="M 110.62167,150.30194 79.373966,168.3427 a 37.125,37.125 0 0 0 31.247704,17.28215 z"
       style="fill:#ffaaee;stroke-width:2.64583;stroke-linecap:round;stroke-linejoin:round;stroke-dashoffset:1.8"
       id="path13" />
    <path
       d="m 110.62167,150.30194 v 35.32291 a 37.125,37.125 0 0 0 31.33039,-17.23461 z"
       style="fill:#ddafe9;stroke-width:2.64583;stroke-linecap:round;stroke-linejoin:round;stroke-dashoffset:1.8"
       id="path12" />
    <path
       d="M 110.62167,150.30142 77.795251,131.34909 a 37.125,37.125 0 0 0 -4.298445,17.15089 37.125,37.125 0 0 0 5.87716,19.84272 z"
       style="fill:#ffe6d5;stroke-width:2.64583;stroke-linecap:round;stroke-linejoin:round;stroke-dashoffset:1.8"
       id="path11" />
    <path
       d="m 110.62167,150.30142 v 5.2e-4 l 31.33039,18.0883 a 37.125,37.125 0 0 0 5.79448,-19.89026 37.125,37.125 0 0 0 -4.24626,-17.18086 z"
       style="fill:#afe9af;stroke-width:2.64583;stroke-linecap:round;stroke-linejoin:round;stroke-dashoffset:1.8"
       id="path10" />
    <path
       d="m 110.62167,111.37511 a 37.125,37.125 0 0 0 -32.826419,19.97398 l 32.826419,18.95233 z"
       style="fill:#e3dedb;stroke-width:2.64583;stroke-linecap:round;stroke-linejoin:round;stroke-dashoffset:1.8"
       id="path9" />
    <path
       d="m 110.62167,111.37511 v 38.92631 l 32.87861,-18.9823 a 37.125,37.125 0 0 0 -32.87861,-19.94401 z"
       style="fill:#d7f4e3;stroke-width:2.64583;stroke-linecap:round;stroke-linejoin:round;stroke-dashoffset:1.8"
       id="path8" />
    <path
       id="path2"
       style="fill:#782144;stroke-width:2.64583;stroke-linecap:round;stroke-linejoin:round;stroke-dashoffset:1.8"
       d="m 110.62167,119.74618 -3.03392,25.88834 a 4.1821985,4.1821985 0 0 0 -1.14825,2.86546 4.1821985,4.1821985 0 0 0 4.18217,4.18217 4.1821985,4.1821985 0 0 0 4.18218,-4.18217 4.1821985,4.1821985 0 0 0 -1.14981,-2.87838 z" />
    <path
       id="rect3"
       style="fill:#50162d;stroke-width:2.64583;stroke-linecap:round;stroke-linejoin:round;stroke-dashoffset:1.8"
       d="m 108.12167,110.73805 h 5 l -2.5,5 z"
       sodipodi:nodetypes="cccc" />
  </g>
</svg>
